# Blender v2.77 (sub 0) OBJ File: ''
# www.blender.org
mtllib MuzzleFlash_a.mtl
o Torus
v 1.640000 0.281849 0.000000
v 1.420000 0.281849 0.109873
v 1.200000 0.281849 0.000000
v 1.420000 0.281849 -0.109873
v 1.326788 1.245817 -0.000000
v 1.148804 1.116504 0.109873
v 0.970820 0.987191 -0.000000
v 1.148804 1.116504 -0.109873
v 0.506788 1.841581 -0.000000
v 0.438804 1.632349 0.109872
v 0.370821 1.423117 -0.000000
v 0.438804 1.632349 -0.109873
v -0.506788 1.841581 -0.000000
v -0.438804 1.632349 0.109872
v -0.370820 1.423117 -0.000000
v -0.438804 1.632349 -0.109873
v -1.326788 1.245816 -0.000000
v -1.148804 1.116503 0.109873
v -0.970821 0.987191 -0.000000
v -1.148804 1.116503 -0.109873
v -1.640000 0.281849 -0.000000
v -1.420000 0.281849 0.109873
v -1.200000 0.281849 -0.000000
v -1.420000 0.281849 -0.109873
v -1.326788 -0.682119 0.000000
v -1.148804 -0.552806 0.109873
v -0.970821 -0.423493 0.000000
v -1.148804 -0.552806 -0.109873
v -0.506788 -1.277884 0.000000
v -0.438804 -1.068651 0.109873
v -0.370820 -0.859419 0.000000
v -0.438804 -1.068651 -0.109872
v 0.506788 -1.277884 0.000000
v 0.438804 -1.068651 0.109873
v 0.370821 -0.859419 0.000000
v 0.438804 -1.068651 -0.109872
v 1.326787 -0.682120 0.000000
v 1.148804 -0.552807 0.109873
v 0.970820 -0.423494 0.000000
v 1.148804 -0.552807 -0.109872
vn 0.4422 0.1437 0.8854
vn -0.4422 -0.1437 0.8854
vn -0.4422 -0.1437 -0.8854
vn 0.4422 0.1437 -0.8854
vn 0.2733 0.3761 0.8854
vn -0.2733 -0.3761 0.8854
vn -0.2733 -0.3761 -0.8854
vn 0.2733 0.3761 -0.8854
vn 0.0000 0.4649 0.8854
vn 0.0000 -0.4649 0.8854
vn 0.0000 -0.4649 -0.8854
vn 0.0000 0.4649 -0.8854
vn -0.2733 0.3761 0.8854
vn 0.2733 -0.3761 0.8854
vn 0.2733 -0.3761 -0.8854
vn -0.2733 0.3761 -0.8854
vn -0.4422 0.1437 0.8854
vn 0.4422 -0.1437 0.8854
vn 0.4422 -0.1437 -0.8854
vn -0.4422 0.1437 -0.8854
usemtl None
s off
f 1//1 5//1 6//1 2//1
f 2//2 6//2 7//2 3//2
f 3//3 7//3 8//3 4//3
f 1//4 4//4 8//4 5//4
f 5//5 9//5 10//5 6//5
f 6//6 10//6 11//6 7//6
f 7//7 11//7 12//7 8//7
f 8//8 12//8 9//8 5//8
f 9//9 13//9 14//9 10//9
f 10//10 14//10 15//10 11//10
f 11//11 15//11 16//11 12//11
f 12//12 16//12 13//12 9//12
f 13//13 17//13 18//13 14//13
f 14//14 18//14 19//14 15//14
f 15//15 19//15 20//15 16//15
f 16//16 20//16 17//16 13//16
f 17//17 21//17 22//17 18//17
f 18//18 22//18 23//18 19//18
f 19//19 23//19 24//19 20//19
f 20//20 24//20 21//20 17//20
f 21//2 25//2 26//2 22//2
f 22//1 26//1 27//1 23//1
f 23//4 27//4 28//4 24//4
f 24//3 28//3 25//3 21//3
f 25//6 29//6 30//6 26//6
f 26//5 30//5 31//5 27//5
f 27//8 31//8 32//8 28//8
f 28//7 32//7 29//7 25//7
f 29//10 33//10 34//10 30//10
f 30//9 34//9 35//9 31//9
f 31//12 35//12 36//12 32//12
f 32//11 36//11 33//11 29//11
f 33//14 37//14 38//14 34//14
f 34//13 38//13 39//13 35//13
f 35//16 39//16 40//16 36//16
f 36//15 40//15 37//15 33//15
f 37//18 1//18 2//18 38//18
f 38//17 2//17 3//17 39//17
f 39//20 3//20 4//20 40//20
f 40//19 4//19 1//19 37//19
o Icosphere.004_Icosphere.005
v -0.097892 0.191543 -1.327119
v 0.298709 1.402130 -1.921563
v -0.698043 1.102371 -1.960110
v -0.145794 -0.621756 -2.398934
v 0.533905 -0.329615 -1.991736
v 0.880135 0.423642 -1.608904
v -0.033592 1.244502 -3.663227
v -0.386695 0.259885 -3.297060
v 0.408949 -0.135046 -3.780146
v 1.264347 0.173512 -2.919835
v 1.140462 0.981767 -3.231984
v 0.969711 0.720184 -5.118143
vn -0.1776 0.4800 0.8591
vn 0.1685 0.3894 0.9055
vn -0.8784 -0.3611 0.3132
vn -0.0203 -0.7960 0.6049
vn 0.3490 -0.5471 0.7608
vn 0.7684 0.5572 0.3148
vn -0.2867 0.9575 -0.0320
vn -0.9543 -0.2967 -0.0353
vn 0.4552 -0.8812 -0.1277
vn 0.7828 -0.5276 0.3301
vn 0.2639 0.9548 -0.1368
vn -0.9179 0.2023 -0.3412
vn -0.6045 -0.6435 -0.4695
vn 0.4476 -0.8851 -0.1276
vn 0.9441 0.2343 0.2320
vn 0.2700 0.9501 -0.1562
vn -0.8086 0.0728 -0.5839
vn -0.6169 -0.5200 -0.5909
vn 0.5553 -0.7866 -0.2700
vn 0.9883 0.1110 -0.1049
usemtl None
s off
f 41//21 42//21 43//21
f 42//22 41//22 46//22
f 41//23 43//23 44//23
f 41//24 44//24 45//24
f 41//25 45//25 46//25
f 42//26 46//26 51//26
f 43//27 42//27 47//27
f 44//28 43//28 48//28
f 45//29 44//29 49//29
f 46//30 45//30 50//30
f 42//31 51//31 47//31
f 43//32 47//32 48//32
f 44//33 48//33 49//33
f 45//34 49//34 50//34
f 46//35 50//35 51//35
f 47//36 51//36 52//36
f 48//37 47//37 52//37
f 49//38 48//38 52//38
f 50//39 49//39 52//39
f 51//40 50//40 52//40
o Icosphere.003_Icosphere.004
v 0.403538 -0.442131 -1.309228
v 0.883523 0.812177 -1.724563
v 0.216638 0.745162 -0.927300
v -0.803948 -0.469156 -1.904025
v -0.043212 -0.572825 -2.255708
v 0.807785 -0.241751 -2.250633
v -0.532795 1.741006 -2.272272
v -1.016354 0.793152 -1.962473
v -1.191818 0.634149 -2.945489
v -0.034631 0.255551 -3.236406
v 0.159634 1.103111 -3.136583
v -1.337069 2.007357 -3.909497
vn 0.7678 -0.0835 0.6352
vn 0.9102 -0.2355 0.3407
vn -0.4099 -0.3372 0.8475
vn -0.0586 -0.9848 0.1636
vn 0.3625 -0.9310 -0.0425
vn 0.8921 0.1489 -0.4267
vn 0.3911 0.8304 0.3969
vn -0.6429 -0.0729 0.7624
vn -0.3752 -0.7026 -0.6046
vn 0.2887 -0.7327 -0.6163
vn 0.5785 0.8051 -0.1307
vn -0.5459 0.4986 0.6733
vn -0.9681 -0.1538 0.1977
vn -0.3810 -0.7047 -0.5986
vn 0.7345 -0.0891 -0.6727
vn 0.5657 0.8116 -0.1458
vn -0.7313 0.5181 0.4435
vn -0.9848 0.0173 0.1730
vn -0.3696 -0.5598 -0.7417
vn 0.4586 -0.0005 -0.8886
usemtl None
s off
f 53//41 54//41 55//41
f 54//42 53//42 58//42
f 53//43 55//43 56//43
f 53//44 56//44 57//44
f 53//45 57//45 58//45
f 54//46 58//46 63//46
f 55//47 54//47 59//47
f 56//48 55//48 60//48
f 57//49 56//49 61//49
f 58//50 57//50 62//50
f 54//51 63//51 59//51
f 55//52 59//52 60//52
f 56//53 60//53 61//53
f 57//54 61//54 62//54
f 58//55 62//55 63//55
f 59//56 63//56 64//56
f 60//57 59//57 64//57
f 61//58 60//58 64//58
f 62//59 61//59 64//59
f 63//60 62//60 64//60
o Icosphere.002_Icosphere.003
v 0.321055 0.355038 -2.045575
v 0.612460 1.035351 -1.862263
v 0.093344 0.999003 -2.082119
v 0.438617 0.340380 -2.766110
v 0.741414 0.284152 -2.427075
v 0.873403 0.463720 -1.984776
v 0.672558 1.539130 -2.683691
v 0.435339 1.025032 -2.885552
v 0.917569 0.938792 -3.132090
v 1.251556 0.733448 -2.577764
v 1.230500 1.193148 -2.461188
v 1.394717 1.683594 -3.359946
vn -0.3837 -0.0835 0.9197
vn -0.0604 -0.2355 0.9700
vn -0.9302 -0.3372 -0.1449
vn -0.1736 -0.9848 -0.0083
vn 0.1464 -0.9310 0.3343
vn 0.6683 0.1489 0.7288
vn -0.2656 0.8304 0.4898
vn -0.9168 -0.0729 -0.3926
vn 0.4689 -0.7026 -0.5353
vn 0.6737 -0.7327 0.0964
vn 0.2938 0.8051 0.5153
vn -0.8033 0.4986 -0.3258
vn -0.4715 -0.1538 -0.8684
vn 0.4614 -0.7047 -0.5390
vn 0.8577 -0.0891 0.5064
vn 0.3045 0.8116 0.4985
vn -0.6376 0.5181 -0.5702
vn -0.4527 0.0173 -0.8915
vn 0.6016 -0.5598 -0.5698
vn 0.9838 -0.0005 0.1795
usemtl None
s off
f 65//61 66//61 67//61
f 66//62 65//62 70//62
f 65//63 67//63 68//63
f 65//64 68//64 69//64
f 65//65 69//65 70//65
f 66//66 70//66 75//66
f 67//67 66//67 71//67
f 68//68 67//68 72//68
f 69//69 68//69 73//69
f 70//70 69//70 74//70
f 66//71 75//71 71//71
f 67//72 71//72 72//72
f 68//73 72//73 73//73
f 69//74 73//74 74//74
f 70//75 74//75 75//75
f 71//76 75//76 76//76
f 72//77 71//77 76//77
f 73//78 72//78 76//78
f 74//79 73//79 76//79
f 75//80 74//80 76//80
o Icosphere.001_Icosphere.002
v 0.417229 -0.415550 -1.948302
v -0.027412 0.146595 -2.208366
v -0.252660 -0.281080 -1.915967
v 0.304226 -0.930451 -2.453589
v 0.554738 -0.548497 -2.487455
v 0.553365 -0.066644 -2.372954
v -0.647151 -0.257580 -2.828622
v -0.333013 -0.739780 -2.655075
v -0.125171 -0.744942 -3.162558
v 0.321449 -0.242420 -3.067724
v -0.066776 0.030693 -3.074739
v -0.652095 -0.391230 -3.819489
vn 0.1427 0.5063 0.8505
vn 0.4171 0.6321 0.6531
vn -0.1027 -0.6851 0.7211
vn 0.8031 -0.4977 0.3276
vn 0.9637 -0.0591 0.2604
vn 0.3061 0.9417 -0.1399
vn -0.7243 0.6062 0.3287
vn -0.3911 -0.7623 0.5156
vn 0.6803 -0.4942 -0.5413
vn 0.9389 0.0821 -0.3342
vn -0.4750 0.8748 -0.0954
vn -0.8373 -0.4191 0.3511
vn -0.2575 -0.9615 -0.0957
vn 0.6782 -0.5014 -0.5372
vn 0.5388 0.7563 -0.3712
vn -0.4806 0.8694 -0.1149
vn -0.8477 -0.5252 0.0751
vn -0.4073 -0.8996 -0.1577
vn 0.5977 -0.4001 -0.6948
vn 0.4316 0.5962 -0.6770
usemtl None
s off
f 77//81 78//81 79//81
f 78//82 77//82 82//82
f 77//83 79//83 80//83
f 77//84 80//84 81//84
f 77//85 81//85 82//85
f 78//86 82//86 87//86
f 79//87 78//87 83//87
f 80//88 79//88 84//88
f 81//89 80//89 85//89
f 82//90 81//90 86//90
f 78//91 87//91 83//91
f 79//92 83//92 84//92
f 80//93 84//93 85//93
f 81//94 85//94 86//94
f 82//95 86//95 87//95
f 83//96 87//96 88//96
f 84//97 83//97 88//97
f 85//98 84//98 88//98
f 86//99 85//99 88//99
f 87//100 86//100 88//100
o Icosphere
v -0.085415 0.004766 0.064590
v 0.992354 0.659863 -1.378194
v 0.138398 1.153221 -0.806322
v -1.044073 -0.139397 -1.355573
v -0.295424 -0.536499 -1.180551
v 0.622385 -0.421323 -0.973526
v 0.230367 1.308210 -3.837726
v -0.693799 0.831008 -2.828062
v -0.657093 0.203153 -3.916583
v 0.323467 -0.437256 -3.145234
v 0.830179 0.234121 -3.761232
v 0.044718 0.754371 -6.507314
vn 0.6551 0.3713 0.6580
vn 0.8128 -0.0613 0.5793
vn -0.7452 0.4890 0.4534
vn -0.5002 -0.7601 0.4148
vn 0.0262 -0.9184 0.3948
vn 0.9454 -0.3258 -0.0061
vn 0.5289 0.8466 0.0593
vn -0.7645 0.6067 0.2180
vn -0.4270 -0.8856 -0.1830
vn 0.1268 -0.9919 -0.0102
vn 0.8683 0.4747 -0.1439
vn -0.4298 0.9023 0.0331
vn -0.9787 0.1617 -0.1263
vn -0.4338 -0.8826 -0.1812
vn 0.7489 -0.6554 -0.0983
vn 0.8668 0.4728 -0.1584
vn -0.5634 0.8159 -0.1301
vn -0.9394 0.2822 -0.1944
vn -0.3562 -0.8896 -0.2858
vn 0.5992 -0.7377 -0.3111
usemtl None
s off
f 89//101 90//101 91//101
f 90//102 89//102 94//102
f 89//103 91//103 92//103
f 89//104 92//104 93//104
f 89//105 93//105 94//105
f 90//106 94//106 99//106
f 91//107 90//107 95//107
f 92//108 91//108 96//108
f 93//109 92//109 97//109
f 94//110 93//110 98//110
f 90//111 99//111 95//111
f 91//112 95//112 96//112
f 92//113 96//113 97//113
f 93//114 97//114 98//114
f 94//115 98//115 99//115
f 95//116 99//116 100//116
f 96//117 95//117 100//117
f 97//118 96//118 100//118
f 98//119 97//119 100//119
f 99//120 98//120 100//120
