# Blender v2.77 (sub 0) OBJ File: 'muzzle.blend'
# www.blender.org
mtllib muzzle.mtl
o Torus
v 1.640000 0.281849 0.000000
v 1.420000 0.281849 0.109873
v 1.200000 0.281849 0.000000
v 1.420000 0.281849 -0.109873
v 1.326788 1.245817 -0.000000
v 1.148804 1.116504 0.109873
v 0.970820 0.987191 -0.000000
v 1.148804 1.116504 -0.109873
v 0.506788 1.841581 -0.000000
v 0.438804 1.632349 0.109872
v 0.370821 1.423117 -0.000000
v 0.438804 1.632349 -0.109873
v -0.506788 1.841581 -0.000000
v -0.438804 1.632349 0.109872
v -0.370820 1.423117 -0.000000
v -0.438804 1.632349 -0.109873
v -1.326788 1.245816 -0.000000
v -1.148804 1.116503 0.109873
v -0.970821 0.987191 -0.000000
v -1.148804 1.116503 -0.109873
v -1.640000 0.281849 -0.000000
v -1.420000 0.281849 0.109873
v -1.200000 0.281849 -0.000000
v -1.420000 0.281849 -0.109873
v -1.326788 -0.682119 0.000000
v -1.148804 -0.552806 0.109873
v -0.970821 -0.423493 0.000000
v -1.148804 -0.552806 -0.109873
v -0.506788 -1.277884 0.000000
v -0.438804 -1.068651 0.109873
v -0.370820 -0.859419 0.000000
v -0.438804 -1.068651 -0.109872
v 0.506788 -1.277884 0.000000
v 0.438804 -1.068651 0.109873
v 0.370821 -0.859419 0.000000
v 0.438804 -1.068651 -0.109872
v 1.326787 -0.682120 0.000000
v 1.148804 -0.552807 0.109873
v 0.970820 -0.423494 0.000000
v 1.148804 -0.552807 -0.109872
vt 0.7500 0.1852
vt 0.8345 0.0512
vt 0.8815 0.0803
vt 0.8083 0.1963
vt 0.9703 0.8397
vt 0.8971 0.9557
vt 0.8501 0.9266
vt 0.9120 0.8286
vt 0.5583 0.8286
vt 0.6202 0.9266
vt 0.5732 0.9557
vt 0.5000 0.8397
vt 0.5000 0.1852
vt 0.4417 0.1963
vt 0.3685 0.0803
vt 0.4155 0.0512
vt 0.9714 0.0000
vt 1.0000 0.0359
vt 0.7786 1.0000
vt 0.7500 0.9641
vt 0.7203 0.9641
vt 0.6917 1.0000
vt 0.2500 0.0359
vt 0.2786 0.0000
vt 0.7214 0.5359
vt 0.5845 0.4848
vt 0.6315 0.4557
vt 0.7500 0.5000
vt 0.3083 0.5359
vt 0.4268 0.5803
vt 0.3798 0.6093
vt 0.2797 0.5719
vt 0.2203 0.5719
vt 0.1202 0.6093
vt 0.0732 0.5803
vt 0.1917 0.5359
vt 0.1315 0.0803
vt 0.0845 0.0512
vt 0.2214 0.0000
vt 0.5000 0.3508
vt 0.5583 0.3397
vt 0.5000 0.6963
vt 0.4417 0.7074
vt 0.0583 0.7074
vt 0.0000 0.6963
vt 0.0583 0.1963
vt 0.0000 0.1852
vt 0.5000 0.1852
vt 0.5583 0.1963
vt 0.5000 0.8397
vt 0.4417 0.8286
vt 0.0583 0.8286
vt 0.0000 0.8397
vt 0.0583 0.3397
vt 0.0000 0.3508
vt 0.5845 0.0512
vt 0.6315 0.0803
vt 0.4268 0.9557
vt 0.3798 0.9266
vt 0.1202 0.9266
vt 0.0732 0.9557
vt 0.1315 0.4557
vt 0.0845 0.4848
vt 0.7214 0.0000
vt 0.7500 0.0359
vt 0.3083 1.0000
vt 0.2797 0.9641
vt 0.2203 0.9641
vt 0.1917 1.0000
vt 0.2500 0.5000
vt 0.2214 0.5359
vt 0.9714 0.5359
vt 0.8345 0.4848
vt 0.8815 0.4557
vt 1.0000 0.5000
vt 0.7786 0.5359
vt 0.8971 0.5803
vt 0.8501 0.6093
vt 0.7500 0.5719
vt 0.7203 0.5719
vt 0.6202 0.6093
vt 0.5732 0.5803
vt 0.6917 0.5359
vt 0.3685 0.4557
vt 0.4155 0.4848
vt 0.2786 0.5359
vt 0.7500 0.3508
vt 0.8083 0.3397
vt 0.9703 0.6963
vt 0.9120 0.7074
vt 0.5583 0.7074
vt 0.5000 0.6963
vt 0.4417 0.3397
vt 0.5000 0.3508
vn 0.4422 0.1437 0.8854
vn -0.4422 -0.1437 0.8854
vn -0.4422 -0.1437 -0.8854
vn 0.4422 0.1437 -0.8854
vn 0.2733 0.3761 0.8854
vn -0.2733 -0.3761 0.8854
vn -0.2733 -0.3761 -0.8854
vn 0.2733 0.3761 -0.8854
vn 0.0000 0.4649 0.8854
vn 0.0000 -0.4649 0.8854
vn 0.0000 -0.4649 -0.8854
vn 0.0000 0.4649 -0.8854
vn -0.2733 0.3761 0.8854
vn 0.2733 -0.3761 0.8854
vn 0.2733 -0.3761 -0.8854
vn -0.2733 0.3761 -0.8854
vn -0.4422 0.1437 0.8854
vn 0.4422 -0.1437 0.8854
vn 0.4422 -0.1437 -0.8854
vn -0.4422 0.1437 -0.8854
usemtl None
s off
f 1/1/1 5/2/1 6/3/1 2/4/1
f 2/5/2 6/6/2 7/7/2 3/8/2
f 3/9/3 7/10/3 8/11/3 4/12/3
f 1/13/4 4/14/4 8/15/4 5/16/4
f 5/2/5 9/17/5 10/18/5 6/3/5
f 6/6/6 10/19/6 11/20/6 7/7/6
f 7/10/7 11/21/7 12/22/7 8/11/7
f 8/15/8 12/23/8 9/24/8 5/16/8
f 9/25/9 13/26/9 14/27/9 10/28/9
f 10/29/10 14/30/10 15/31/10 11/32/10
f 11/33/11 15/34/11 16/35/11 12/36/11
f 12/23/12 16/37/12 13/38/12 9/39/12
f 13/26/13 17/40/13 18/41/13 14/27/13
f 14/30/14 18/42/14 19/43/14 15/31/14
f 15/34/15 19/44/15 20/45/15 16/35/15
f 16/37/16 20/46/16 17/47/16 13/38/16
f 17/40/17 21/48/17 22/49/17 18/41/17
f 18/42/18 22/50/18 23/51/18 19/43/18
f 19/44/19 23/52/19 24/53/19 20/45/19
f 20/46/20 24/54/20 21/55/20 17/47/20
f 21/48/2 25/56/2 26/57/2 22/49/2
f 22/50/1 26/58/1 27/59/1 23/51/1
f 23/52/4 27/60/4 28/61/4 24/53/4
f 24/54/3 28/62/3 25/63/3 21/55/3
f 25/56/6 29/64/6 30/65/6 26/57/6
f 26/58/5 30/66/5 31/67/5 27/59/5
f 27/60/8 31/68/8 32/69/8 28/61/8
f 28/62/7 32/70/7 29/71/7 25/63/7
f 29/72/10 33/73/10 34/74/10 30/75/10
f 30/76/9 34/77/9 35/78/9 31/79/9
f 31/80/12 35/81/12 36/82/12 32/83/12
f 32/70/11 36/84/11 33/85/11 29/86/11
f 33/73/14 37/87/14 38/88/14 34/74/14
f 34/77/13 38/89/13 39/90/13 35/78/13
f 35/81/16 39/91/16 40/92/16 36/82/16
f 36/84/15 40/93/15 37/94/15 33/85/15
f 37/87/18 1/1/18 2/4/18 38/88/18
f 38/89/17 2/5/17 3/8/17 39/90/17
f 39/91/20 3/9/20 4/12/20 40/92/20
f 40/93/19 4/14/19 1/13/19 37/94/19
o Icosphere.004_Icosphere.005
v -0.097892 0.191543 -1.327119
v 0.298709 1.402130 -1.921563
v -0.698043 1.102371 -1.960110
v -0.145794 -0.621756 -2.398934
v 0.533905 -0.329615 -1.991736
v 0.880135 0.423642 -1.608904
v -0.033592 1.244502 -3.663227
v -0.386695 0.259885 -3.297060
v 0.408949 -0.135046 -3.780146
v 1.264347 0.173512 -2.919835
v 1.140462 0.981767 -3.231984
v 0.969711 0.720184 -5.118143
vt 0.0000 0.0000
vt 1.0000 0.0000
vt 1.0000 1.0000
vt 0.0000 0.0000
vt 1.0000 0.0000
vt 1.0000 1.0000
vt 1.0000 0.0000
vt 1.0000 1.0000
vt 1.0000 0.0000
vt 1.0000 1.0000
vt 1.0000 0.0000
vt 1.0000 0.0000
vt 1.0000 1.0000
vt 0.0000 0.0000
vt 1.0000 1.0000
vt 0.0000 0.0000
vt 1.0000 1.0000
vt 0.0000 0.0000
vt 1.0000 1.0000
vt 0.0000 0.0000
vt 1.0000 1.0000
vt 1.0000 0.0000
vt 1.0000 0.0000
vt 1.0000 0.0000
vt 1.0000 0.0000
vt 1.0000 0.0000
vt 0.0000 0.0000
vt 1.0000 1.0000
vt 0.0000 0.0000
vt 0.0000 0.0000
vt 0.0000 0.0000
vt 0.0000 0.0000
vn -0.1776 0.4800 0.8591
vn 0.1685 0.3894 0.9055
vn -0.8784 -0.3611 0.3132
vn -0.0203 -0.7960 0.6049
vn 0.3490 -0.5471 0.7608
vn 0.7684 0.5572 0.3148
vn -0.2867 0.9575 -0.0320
vn -0.9543 -0.2967 -0.0353
vn 0.4552 -0.8812 -0.1277
vn 0.7828 -0.5276 0.3301
vn 0.2639 0.9548 -0.1368
vn -0.9179 0.2023 -0.3412
vn -0.6045 -0.6435 -0.4695
vn 0.4476 -0.8851 -0.1276
vn 0.9441 0.2343 0.2320
vn 0.2700 0.9501 -0.1562
vn -0.8086 0.0728 -0.5839
vn -0.6169 -0.5200 -0.5909
vn 0.5553 -0.7866 -0.2700
vn 0.9883 0.1110 -0.1049
usemtl None
s off
f 41/95/21 42/96/21 43/97/21
f 42/98/22 41/99/22 46/100/22
f 41/95/23 43/101/23 44/102/23
f 41/95/24 44/103/24 45/104/24
f 41/95/25 45/105/25 46/100/25
f 42/98/26 46/106/26 51/107/26
f 43/108/27 42/96/27 47/109/27
f 44/110/28 43/101/28 48/111/28
f 45/112/29 44/103/29 49/113/29
f 46/114/30 45/105/30 50/115/30
f 42/98/31 51/116/31 47/109/31
f 43/108/32 47/117/32 48/111/32
f 44/110/33 48/118/33 49/113/33
f 45/112/34 49/119/34 50/115/34
f 46/114/35 50/120/35 51/107/35
f 47/121/36 51/116/36 52/122/36
f 48/123/37 47/117/37 52/122/37
f 49/124/38 48/118/38 52/122/38
f 50/125/39 49/119/39 52/122/39
f 51/126/40 50/120/40 52/122/40
o Icosphere.003_Icosphere.004
v 0.403538 -0.442131 -1.309228
v 0.883523 0.812177 -1.724563
v 0.216638 0.745162 -0.927300
v -0.803948 -0.469156 -1.904025
v -0.043212 -0.572825 -2.255708
v 0.807785 -0.241751 -2.250633
v -0.532795 1.741006 -2.272272
v -1.016354 0.793152 -1.962473
v -1.191818 0.634149 -2.945489
v -0.034631 0.255551 -3.236406
v 0.159634 1.103111 -3.136583
v -1.337069 2.007357 -3.909497
vt 0.0000 0.0000
vt 1.0000 0.0000
vt 1.0000 1.0000
vt 0.0000 0.0000
vt 1.0000 0.0000
vt 1.0000 1.0000
vt 1.0000 0.0000
vt 1.0000 1.0000
vt 1.0000 0.0000
vt 1.0000 1.0000
vt 1.0000 0.0000
vt 1.0000 0.0000
vt 1.0000 1.0000
vt 0.0000 0.0000
vt 1.0000 1.0000
vt 0.0000 0.0000
vt 1.0000 1.0000
vt 0.0000 0.0000
vt 1.0000 1.0000
vt 0.0000 0.0000
vt 1.0000 1.0000
vt 1.0000 0.0000
vt 1.0000 0.0000
vt 1.0000 0.0000
vt 1.0000 0.0000
vt 1.0000 0.0000
vt 0.0000 0.0000
vt 1.0000 1.0000
vt 0.0000 0.0000
vt 0.0000 0.0000
vt 0.0000 0.0000
vt 0.0000 0.0000
vn 0.7678 -0.0835 0.6352
vn 0.9102 -0.2355 0.3407
vn -0.4099 -0.3372 0.8475
vn -0.0586 -0.9848 0.1636
vn 0.3625 -0.9310 -0.0425
vn 0.8921 0.1489 -0.4267
vn 0.3911 0.8304 0.3969
vn -0.6429 -0.0729 0.7624
vn -0.3752 -0.7026 -0.6046
vn 0.2887 -0.7327 -0.6163
vn 0.5785 0.8051 -0.1307
vn -0.5459 0.4986 0.6733
vn -0.9681 -0.1538 0.1977
vn -0.3810 -0.7047 -0.5986
vn 0.7345 -0.0891 -0.6727
vn 0.5657 0.8116 -0.1458
vn -0.7313 0.5181 0.4435
vn -0.9848 0.0173 0.1730
vn -0.3696 -0.5598 -0.7417
vn 0.4586 -0.0005 -0.8886
usemtl None
s off
f 53/127/41 54/128/41 55/129/41
f 54/130/42 53/131/42 58/132/42
f 53/127/43 55/133/43 56/134/43
f 53/127/44 56/135/44 57/136/44
f 53/127/45 57/137/45 58/132/45
f 54/130/46 58/138/46 63/139/46
f 55/140/47 54/128/47 59/141/47
f 56/142/48 55/133/48 60/143/48
f 57/144/49 56/135/49 61/145/49
f 58/146/50 57/137/50 62/147/50
f 54/130/51 63/148/51 59/141/51
f 55/140/52 59/149/52 60/143/52
f 56/142/53 60/150/53 61/145/53
f 57/144/54 61/151/54 62/147/54
f 58/146/55 62/152/55 63/139/55
f 59/153/56 63/148/56 64/154/56
f 60/155/57 59/149/57 64/154/57
f 61/156/58 60/150/58 64/154/58
f 62/157/59 61/151/59 64/154/59
f 63/158/60 62/152/60 64/154/60
o Icosphere.002_Icosphere.003
v 0.321055 0.355038 -2.045575
v 0.612460 1.035351 -1.862263
v 0.093344 0.999003 -2.082119
v 0.438617 0.340380 -2.766110
v 0.741414 0.284152 -2.427075
v 0.873403 0.463720 -1.984776
v 0.672558 1.539130 -2.683691
v 0.435339 1.025032 -2.885552
v 0.917569 0.938792 -3.132090
v 1.251556 0.733448 -2.577764
v 1.230500 1.193148 -2.461188
v 1.394717 1.683594 -3.359946
vn -0.3837 -0.0835 0.9197
vn -0.0604 -0.2355 0.9700
vn -0.9302 -0.3372 -0.1449
vn -0.1736 -0.9848 -0.0083
vn 0.1464 -0.9310 0.3343
vn 0.6683 0.1489 0.7288
vn -0.2656 0.8304 0.4898
vn -0.9168 -0.0729 -0.3926
vn 0.4689 -0.7026 -0.5353
vn 0.6737 -0.7327 0.0964
vn 0.2938 0.8051 0.5153
vn -0.8033 0.4986 -0.3258
vn -0.4715 -0.1538 -0.8684
vn 0.4614 -0.7047 -0.5390
vn 0.8577 -0.0891 0.5064
vn 0.3045 0.8116 0.4985
vn -0.6376 0.5181 -0.5702
vn -0.4527 0.0173 -0.8915
vn 0.6016 -0.5598 -0.5698
vn 0.9838 -0.0005 0.1795
usemtl None
s off
f 65//61 66//61 67//61
f 66//62 65//62 70//62
f 65//63 67//63 68//63
f 65//64 68//64 69//64
f 65//65 69//65 70//65
f 66//66 70//66 75//66
f 67//67 66//67 71//67
f 68//68 67//68 72//68
f 69//69 68//69 73//69
f 70//70 69//70 74//70
f 66//71 75//71 71//71
f 67//72 71//72 72//72
f 68//73 72//73 73//73
f 69//74 73//74 74//74
f 70//75 74//75 75//75
f 71//76 75//76 76//76
f 72//77 71//77 76//77
f 73//78 72//78 76//78
f 74//79 73//79 76//79
f 75//80 74//80 76//80
o Icosphere.001_Icosphere.002
v 0.417229 -0.415550 -1.948302
v -0.027412 0.146595 -2.208366
v -0.252660 -0.281080 -1.915967
v 0.304226 -0.930451 -2.453589
v 0.554738 -0.548497 -2.487455
v 0.553365 -0.066644 -2.372954
v -0.647151 -0.257580 -2.828622
v -0.333013 -0.739780 -2.655075
v -0.125171 -0.744942 -3.162558
v 0.321449 -0.242420 -3.067724
v -0.066776 0.030693 -3.074739
v -0.652095 -0.391230 -3.819489
vt 0.0000 0.0000
vt 1.0000 0.0000
vt 1.0000 1.0000
vt 0.0000 0.0000
vt 1.0000 0.0000
vt 1.0000 1.0000
vt 1.0000 0.0000
vt 1.0000 1.0000
vt 1.0000 0.0000
vt 1.0000 1.0000
vt 1.0000 0.0000
vt 1.0000 0.0000
vt 1.0000 1.0000
vt 0.0000 0.0000
vt 1.0000 1.0000
vt 0.0000 0.0000
vt 1.0000 1.0000
vt 0.0000 0.0000
vt 1.0000 1.0000
vt 0.0000 0.0000
vt 1.0000 1.0000
vt 1.0000 0.0000
vt 1.0000 0.0000
vt 1.0000 0.0000
vt 1.0000 0.0000
vt 1.0000 0.0000
vt 0.0000 0.0000
vt 1.0000 1.0000
vt 0.0000 0.0000
vt 0.0000 0.0000
vt 0.0000 0.0000
vt 0.0000 0.0000
vn 0.1427 0.5063 0.8505
vn 0.4171 0.6321 0.6531
vn -0.1027 -0.6851 0.7211
vn 0.8031 -0.4977 0.3276
vn 0.9637 -0.0591 0.2604
vn 0.3061 0.9417 -0.1399
vn -0.7243 0.6062 0.3287
vn -0.3911 -0.7623 0.5156
vn 0.6803 -0.4942 -0.5413
vn 0.9389 0.0821 -0.3342
vn -0.4750 0.8748 -0.0954
vn -0.8373 -0.4191 0.3511
vn -0.2575 -0.9615 -0.0957
vn 0.6782 -0.5014 -0.5372
vn 0.5388 0.7563 -0.3712
vn -0.4806 0.8694 -0.1149
vn -0.8477 -0.5252 0.0751
vn -0.4073 -0.8996 -0.1577
vn 0.5977 -0.4001 -0.6948
vn 0.4316 0.5962 -0.6770
usemtl None
s off
f 77/159/81 78/160/81 79/161/81
f 78/162/82 77/163/82 82/164/82
f 77/159/83 79/165/83 80/166/83
f 77/159/84 80/167/84 81/168/84
f 77/159/85 81/169/85 82/164/85
f 78/162/86 82/170/86 87/171/86
f 79/172/87 78/160/87 83/173/87
f 80/174/88 79/165/88 84/175/88
f 81/176/89 80/167/89 85/177/89
f 82/178/90 81/169/90 86/179/90
f 78/162/91 87/180/91 83/173/91
f 79/172/92 83/181/92 84/175/92
f 80/174/93 84/182/93 85/177/93
f 81/176/94 85/183/94 86/179/94
f 82/178/95 86/184/95 87/171/95
f 83/185/96 87/180/96 88/186/96
f 84/187/97 83/181/97 88/186/97
f 85/188/98 84/182/98 88/186/98
f 86/189/99 85/183/99 88/186/99
f 87/190/100 86/184/100 88/186/100
o Icosphere
v -0.085415 0.004766 0.064590
v 0.992354 0.659863 -1.378194
v 0.138398 1.153221 -0.806322
v -1.044073 -0.139397 -1.355573
v -0.295424 -0.536499 -1.180551
v 0.622385 -0.421323 -0.973526
v 0.230367 1.308210 -3.837726
v -0.693799 0.831008 -2.828062
v -0.657093 0.203153 -3.916583
v 0.323467 -0.437256 -3.145234
v 0.830179 0.234121 -3.761232
v 0.044718 0.754371 -6.507314
vt 0.0000 0.0000
vt 1.0000 0.0000
vt 1.0000 1.0000
vt 0.0000 0.0000
vt 1.0000 0.0000
vt 1.0000 1.0000
vt 1.0000 0.0000
vt 1.0000 1.0000
vt 1.0000 0.0000
vt 1.0000 1.0000
vt 1.0000 0.0000
vt 1.0000 0.0000
vt 1.0000 1.0000
vt 0.0000 0.0000
vt 1.0000 1.0000
vt 0.0000 0.0000
vt 1.0000 1.0000
vt 0.0000 0.0000
vt 1.0000 1.0000
vt 0.0000 0.0000
vt 1.0000 1.0000
vt 1.0000 0.0000
vt 1.0000 0.0000
vt 1.0000 0.0000
vt 1.0000 0.0000
vt 1.0000 0.0000
vt 0.0000 0.0000
vt 1.0000 1.0000
vt 0.0000 0.0000
vt 0.0000 0.0000
vt 0.0000 0.0000
vt 0.0000 0.0000
vn 0.6551 0.3713 0.6580
vn 0.8128 -0.0613 0.5793
vn -0.7452 0.4890 0.4534
vn -0.5002 -0.7601 0.4148
vn 0.0262 -0.9184 0.3948
vn 0.9454 -0.3258 -0.0061
vn 0.5289 0.8466 0.0593
vn -0.7645 0.6067 0.2180
vn -0.4270 -0.8856 -0.1830
vn 0.1268 -0.9919 -0.0102
vn 0.8683 0.4747 -0.1439
vn -0.4298 0.9023 0.0331
vn -0.9787 0.1617 -0.1263
vn -0.4338 -0.8826 -0.1812
vn 0.7489 -0.6554 -0.0983
vn 0.8668 0.4728 -0.1584
vn -0.5634 0.8159 -0.1301
vn -0.9394 0.2822 -0.1944
vn -0.3562 -0.8896 -0.2858
vn 0.5992 -0.7377 -0.3111
usemtl None
s off
f 89/191/101 90/192/101 91/193/101
f 90/194/102 89/195/102 94/196/102
f 89/191/103 91/197/103 92/198/103
f 89/191/104 92/199/104 93/200/104
f 89/191/105 93/201/105 94/196/105
f 90/194/106 94/202/106 99/203/106
f 91/204/107 90/192/107 95/205/107
f 92/206/108 91/197/108 96/207/108
f 93/208/109 92/199/109 97/209/109
f 94/210/110 93/201/110 98/211/110
f 90/194/111 99/212/111 95/205/111
f 91/204/112 95/213/112 96/207/112
f 92/206/113 96/214/113 97/209/113
f 93/208/114 97/215/114 98/211/114
f 94/210/115 98/216/115 99/203/115
f 95/217/116 99/212/116 100/218/116
f 96/219/117 95/213/117 100/218/117
f 97/220/118 96/214/118 100/218/118
f 98/221/119 97/215/119 100/218/119
f 99/222/120 98/216/120 100/218/120
